<svg width="337" height="52" viewBox="0 0 337 52" fill="none" xmlns="http://www.w3.org/2000/svg">
<path d="M0.00292969 26.0596C0.00292969 25.1481 0.0843099 24.1634 0.24707 23.1055C0.377279 22.2103 0.597005 21.3232 0.90625 20.4443C1.08529 19.8747 1.41895 19.1097 1.90723 18.1494C2.23275 17.5635 2.68034 16.9124 3.25 16.1963C3.64062 15.6592 4.17773 15.1139 4.86133 14.5605C5.74023 13.877 6.33431 13.4538 6.64355 13.291C7.65267 12.7702 8.31999 12.4528 8.64551 12.3389C9.10124 12.1761 9.78483 11.9971 10.6963 11.8018C11.3962 11.7041 12.1123 11.6553 12.8447 11.6553C15.4001 11.6553 17.5485 12.3226 19.29 13.6572C20.999 14.9919 22.2523 16.9531 23.0498 19.541L23.001 18.9551V0.791016H29.1045V40H23.0498V33.6523L23.1963 31.5527C22.4313 34.2708 21.1699 36.403 19.4121 37.9492C17.6217 39.5117 15.335 40.293 12.5518 40.293C11.7868 40.293 10.9567 40.2116 10.0615 40.0488C9.23145 39.9023 8.44206 39.6826 7.69336 39.3896C7.00977 39.1292 6.29362 38.7467 5.54492 38.2422C4.77995 37.7376 4.16146 37.2249 3.68945 36.7041C3.15234 36.1182 2.65592 35.4346 2.2002 34.6533C1.67936 33.7581 1.2806 32.9443 1.00391 32.2119C0.629557 31.3005 0.377279 30.3483 0.24707 29.3555C0.0843099 28.1836 0.00292969 27.085 0.00292969 26.0596ZM23.3916 25.8887C23.3916 23.3008 22.6755 21.1361 21.2432 19.3945C19.8271 17.6693 17.6462 16.8066 14.7002 16.8066C12.0472 16.8066 9.94759 17.6367 8.40137 19.2969C6.83887 20.9896 6.05762 23.2275 6.05762 26.0107C6.05762 28.7288 6.80632 30.9261 8.30371 32.6025C9.75228 34.2627 11.8682 35.0928 14.6514 35.0928C17.5811 35.0928 19.762 34.2139 21.1943 32.4561C22.6592 30.6657 23.3916 28.4766 23.3916 25.8887ZM33.3525 26.1572C33.3525 25.1807 33.4176 24.3099 33.5479 23.5449C33.6618 22.8939 33.8652 22.0801 34.1582 21.1035C34.3861 20.3711 34.7035 19.6061 35.1104 18.8086C35.3382 18.2878 35.7695 17.6042 36.4043 16.7578C36.9089 16.0905 37.4704 15.4883 38.0889 14.9512C38.6423 14.4466 39.3096 13.9665 40.0908 13.5107C40.8232 13.055 41.5964 12.6888 42.4102 12.4121C43.4844 12.054 44.3633 11.818 45.0469 11.7041C46.056 11.5413 47.0244 11.46 47.9521 11.46C48.9775 11.46 50.0762 11.5413 51.248 11.7041C52.2734 11.8994 53.2093 12.168 54.0557 12.5098C54.7393 12.7865 55.5368 13.2178 56.4482 13.8037C57.1318 14.2757 57.7829 14.821 58.4014 15.4395C59.0199 16.1719 59.5163 16.8555 59.8906 17.4902C60.3626 18.2878 60.7288 19.0771 60.9893 19.8584C61.3636 21.1442 61.5833 22.0068 61.6484 22.4463C61.7786 23.2438 61.8438 24.1634 61.8438 25.2051V26.6943H39.2607C39.3584 29.2334 40.1396 31.2842 41.6045 32.8467C43.0368 34.3766 45.1364 35.1416 47.9033 35.1416C50.1169 35.1416 51.834 34.6777 53.0547 33.75C54.2428 32.8385 55.1706 31.5202 55.8379 29.7949L61.5508 31.8457C60.6068 34.3034 59.0036 36.3704 56.7412 38.0469C54.5439 39.6745 51.6631 40.4883 48.0986 40.4883C46.8454 40.4883 45.6979 40.3906 44.6562 40.1953C43.7936 40.0814 42.7764 39.8128 41.6045 39.3896C40.5465 39.0153 39.6921 38.584 39.041 38.0957C38.2272 37.5749 37.5436 37.0133 36.9902 36.4111C36.3392 35.695 35.8102 34.9951 35.4033 34.3115C34.915 33.4652 34.5326 32.6432 34.2559 31.8457C33.9629 30.9993 33.7432 30.0879 33.5967 29.1113C33.4339 28.0534 33.3525 27.0687 33.3525 26.1572ZM47.9521 16.7578C45.3154 16.7578 43.2809 17.5228 41.8486 19.0527C40.3512 20.599 39.5049 22.5846 39.3096 25.0098H55.96C55.9111 22.6172 55.2601 20.6478 54.0068 19.1016C52.6885 17.5391 50.6702 16.7578 47.9521 16.7578ZM62.332 35.0928L66.9463 30.3564C68.1833 31.8538 69.5993 33.0339 71.1943 33.8965C72.7568 34.8242 74.7588 35.2881 77.2002 35.2881C79.2184 35.2881 80.7321 34.8568 81.7412 33.9941C82.7015 33.1315 83.1816 32.0654 83.1816 30.7959C83.2305 29.4124 82.5143 28.3789 81.0332 27.6953C79.6172 27.1257 77.5745 26.7106 74.9053 26.4502C70.8037 26.1572 67.9147 25.5062 66.2383 24.4971C64.5456 23.5042 63.6992 21.9255 63.6992 19.7607C63.6992 17.3844 64.7002 15.3662 66.7021 13.7061C68.6553 12.0459 71.471 11.2402 75.1494 11.2891C78.2093 11.2891 80.8704 11.7448 83.1328 12.6562C85.4766 13.6491 87.5111 15.0326 89.2363 16.8066L84.793 21.25C83.6048 19.834 82.2539 18.6865 80.7402 17.8076C79.2103 16.9613 77.3467 16.5381 75.1494 16.5381C73.001 16.5381 71.4792 16.9613 70.584 17.8076C69.6562 18.6377 69.1924 19.6549 69.1924 20.8594C69.2412 22.1615 69.876 23.138 71.0967 23.7891C72.3662 24.4564 74.2624 24.9121 76.7852 25.1562C80.7728 25.4492 83.7594 26.0677 85.7451 27.0117C87.7471 27.972 88.748 29.6647 88.748 32.0898C88.748 32.806 88.6829 33.457 88.5527 34.043C88.4388 34.5638 88.2028 35.166 87.8447 35.8496C87.4704 36.4681 87.0716 36.9889 86.6484 37.4121C86.0788 37.9818 85.5091 38.4131 84.9395 38.7061C84.1582 39.1618 83.4095 39.4954 82.6934 39.707C81.9284 39.9674 81.0251 40.179 79.9834 40.3418C78.9906 40.4883 77.9082 40.5615 76.7363 40.5615C73.4974 40.5615 70.6979 40.0732 68.3379 39.0967C66.0592 38.1527 64.0573 36.818 62.332 35.0928ZM101.565 7.79785V9.31152H92.9717V7.79785H101.565ZM100.32 11.9971V40H94.2168V11.9971H100.32ZM105.35 44.9072L110.989 41.9043C111.754 43.3366 112.804 44.4352 114.139 45.2002C115.49 45.9652 117.158 46.3477 119.144 46.3477C121.748 46.3477 123.815 45.5827 125.345 44.0527C126.842 42.5553 127.591 40.0244 127.591 36.46V33.5059L127.737 31.5039C126.989 34.2057 125.727 36.3053 123.953 37.8027C122.179 39.3001 119.892 40.0488 117.093 40.0488C116.328 40.0488 115.498 39.9674 114.603 39.8047C113.772 39.6582 112.983 39.4385 112.234 39.1455C111.437 38.8363 110.721 38.4701 110.086 38.0469C109.321 37.5423 108.702 37.0296 108.23 36.5088C107.645 35.874 107.148 35.2067 106.741 34.5068C106.253 33.6605 105.854 32.8548 105.545 32.0898C105.171 31.1621 104.918 30.2181 104.788 29.2578C104.625 28.0859 104.544 26.9873 104.544 25.9619C104.544 25.0505 104.625 24.0658 104.788 23.0078C104.918 22.1126 105.138 21.2256 105.447 20.3467C105.643 19.6794 105.976 18.9144 106.448 18.0518C106.774 17.4658 107.221 16.8148 107.791 16.0986C108.214 15.5127 108.751 14.9593 109.402 14.4385C110.216 13.8037 110.81 13.3887 111.185 13.1934C111.998 12.7702 112.666 12.4691 113.187 12.29C113.642 12.1273 114.326 11.9482 115.237 11.7529C115.937 11.6553 116.653 11.6064 117.386 11.6064C119.99 11.6064 122.179 12.3063 123.953 13.7061C125.678 15.1221 126.924 17.1891 127.688 19.9072L127.64 18.8086V11.9971H133.646V36.4111C133.646 41.5381 132.376 45.3711 129.837 47.9102C127.282 50.4655 123.668 51.7432 118.997 51.7432C115.774 51.7432 113.024 51.1491 110.745 49.9609C108.401 48.8216 106.603 47.137 105.35 44.9072ZM127.933 25.8887C127.933 23.2682 127.216 21.0872 125.784 19.3457C124.368 17.6204 122.187 16.7578 119.241 16.7578C116.556 16.7578 114.456 17.5716 112.942 19.1992C111.38 20.8919 110.599 23.1055 110.599 25.8398C110.599 28.5905 111.347 30.7796 112.845 32.4072C114.261 34.0348 116.393 34.8486 119.241 34.8486C122.138 34.8486 124.303 34.0186 125.735 32.3584C127.2 30.6657 127.933 28.5091 127.933 25.8887ZM140.384 40V11.9971H146.39V20.7617C147.155 17.653 148.473 15.3174 150.345 13.7549C152.184 12.2249 154.397 11.46 156.985 11.46C160.322 11.46 162.877 12.4935 164.651 14.5605C166.377 16.5788 167.239 19.2887 167.239 22.6904V40H161.185V24.4482C161.185 21.9906 160.656 20.0374 159.598 18.5889C158.507 17.1566 156.668 16.4404 154.08 16.4404C151.785 16.4404 149.987 17.2135 148.685 18.7598C147.334 20.306 146.585 22.5358 146.438 25.4492V40H140.384ZM178.982 35.0928L183.597 30.3564C184.834 31.8538 186.25 33.0339 187.845 33.8965C189.407 34.8242 191.409 35.2881 193.851 35.2881C195.869 35.2881 197.382 34.8568 198.392 33.9941C199.352 33.1315 199.832 32.0654 199.832 30.7959C199.881 29.4124 199.165 28.3789 197.684 27.6953C196.268 27.1257 194.225 26.7106 191.556 26.4502C187.454 26.1572 184.565 25.5062 182.889 24.4971C181.196 23.5042 180.35 21.9255 180.35 19.7607C180.35 17.3844 181.351 15.3662 183.353 13.7061C185.306 12.0459 188.121 11.2402 191.8 11.2891C194.86 11.2891 197.521 11.7448 199.783 12.6562C202.127 13.6491 204.161 15.0326 205.887 16.8066L201.443 21.25C200.255 19.834 198.904 18.6865 197.391 17.8076C195.861 16.9613 193.997 16.5381 191.8 16.5381C189.651 16.5381 188.13 16.9613 187.234 17.8076C186.307 18.6377 185.843 19.6549 185.843 20.8594C185.892 22.1615 186.526 23.138 187.747 23.7891C189.017 24.4564 190.913 24.9121 193.436 25.1562C197.423 25.4492 200.41 26.0677 202.396 27.0117C204.397 27.972 205.398 29.6647 205.398 32.0898C205.398 32.806 205.333 33.457 205.203 34.043C205.089 34.5638 204.853 35.166 204.495 35.8496C204.121 36.4681 203.722 36.9889 203.299 37.4121C202.729 37.9818 202.16 38.4131 201.59 38.7061C200.809 39.1618 200.06 39.4954 199.344 39.707C198.579 39.9674 197.675 40.179 196.634 40.3418C195.641 40.4883 194.559 40.5615 193.387 40.5615C190.148 40.5615 187.348 40.0732 184.988 39.0967C182.71 38.1527 180.708 36.818 178.982 35.0928ZM226.81 34.2383V39.5605C225.979 39.8698 225.247 40.0814 224.612 40.1953C223.815 40.3906 222.985 40.4883 222.122 40.4883C219.127 40.4883 216.979 39.7396 215.677 38.2422C214.375 36.7448 213.724 34.4499 213.724 31.3574V17.3438H207.815V11.9971H213.772V4.59961L219.412 1.25488V11.9971H226.81V17.2949H219.412V30.4053C219.412 32.0817 219.746 33.278 220.413 33.9941C221.064 34.694 222.016 35.0439 223.27 35.0439C224.002 35.0439 224.62 34.9788 225.125 34.8486C225.434 34.7673 225.996 34.5638 226.81 34.2383ZM259.207 11.9971V40H253.226V31.5039C252.477 34.4336 251.207 36.6797 249.417 38.2422C247.594 39.7884 245.446 40.5615 242.972 40.5615C239.619 40.5615 237.063 39.5117 235.306 37.4121C233.58 35.3939 232.718 32.6595 232.718 29.209V11.9971H238.772V27.4512C238.772 29.9414 239.301 31.9108 240.359 33.3594C241.434 34.8242 243.232 35.5566 245.755 35.5566C248.082 35.5566 249.873 34.751 251.126 33.1396C252.396 31.4958 253.079 29.2822 253.177 26.499V11.9971H259.207ZM262.503 26.0596C262.503 25.1481 262.584 24.1634 262.747 23.1055C262.877 22.2103 263.097 21.3232 263.406 20.4443C263.585 19.8747 263.919 19.1097 264.407 18.1494C264.733 17.5635 265.18 16.9124 265.75 16.1963C266.141 15.6592 266.678 15.1139 267.361 14.5605C268.24 13.877 268.834 13.4538 269.144 13.291C270.153 12.7702 270.82 12.4528 271.146 12.3389C271.601 12.1761 272.285 11.9971 273.196 11.8018C273.896 11.7041 274.612 11.6553 275.345 11.6553C277.9 11.6553 280.049 12.3226 281.79 13.6572C283.499 14.9919 284.752 16.9531 285.55 19.541L285.501 18.9551V0.791016H291.604V40H285.55V33.6523L285.696 31.5527C284.931 34.2708 283.67 36.403 281.912 37.9492C280.122 39.5117 277.835 40.293 275.052 40.293C274.287 40.293 273.457 40.2116 272.562 40.0488C271.731 39.9023 270.942 39.6826 270.193 39.3896C269.51 39.1292 268.794 38.7467 268.045 38.2422C267.28 37.7376 266.661 37.2249 266.189 36.7041C265.652 36.1182 265.156 35.4346 264.7 34.6533C264.179 33.7581 263.781 32.9443 263.504 32.2119C263.13 31.3005 262.877 30.3483 262.747 29.3555C262.584 28.1836 262.503 27.085 262.503 26.0596ZM285.892 25.8887C285.892 23.3008 285.175 21.1361 283.743 19.3945C282.327 17.6693 280.146 16.8066 277.2 16.8066C274.547 16.8066 272.448 17.6367 270.901 19.2969C269.339 20.9896 268.558 23.2275 268.558 26.0107C268.558 28.7288 269.306 30.9261 270.804 32.6025C272.252 34.2627 274.368 35.0928 277.151 35.0928C280.081 35.0928 282.262 34.2139 283.694 32.4561C285.159 30.6657 285.892 28.4766 285.892 25.8887ZM304.544 7.79785V9.31152H295.95V7.79785H304.544ZM303.299 11.9971V40H297.195V11.9971H303.299ZM322.171 40.4883C320.983 40.4883 319.868 40.3906 318.826 40.1953C317.947 40.0814 316.963 39.8128 315.872 39.3896C314.912 39.0316 314.074 38.584 313.357 38.0469C312.69 37.6237 312.015 37.0378 311.331 36.2891C310.615 35.5729 310.062 34.8568 309.671 34.1406C309.166 33.278 308.784 32.4642 308.523 31.6992C308.165 30.804 307.913 29.8844 307.767 28.9404C307.604 27.8825 307.522 26.9059 307.522 26.0107C307.522 25.0016 307.588 24.1146 307.718 23.3496C307.832 22.6986 308.035 21.8848 308.328 20.9082C308.556 20.1921 308.873 19.4434 309.28 18.6621C309.508 18.1738 309.939 17.5065 310.574 16.6602C311.014 16.0742 311.575 15.4883 312.259 14.9023C312.812 14.3978 313.479 13.9176 314.261 13.4619C315.042 12.9736 315.815 12.5993 316.58 12.3389C317.557 11.9971 318.436 11.7692 319.217 11.6553C320.063 11.5251 321.048 11.46 322.171 11.46C323.294 11.46 324.279 11.5251 325.125 11.6553C325.906 11.7692 326.785 11.9971 327.762 12.3389C328.429 12.5667 329.218 12.9167 330.13 13.3887C330.765 13.7793 331.424 14.2676 332.107 14.8535C332.856 15.5371 333.41 16.123 333.768 16.6113C334.549 17.7832 334.98 18.4424 335.062 18.5889C335.566 19.7119 335.883 20.485 336.014 20.9082C336.225 21.6406 336.412 22.4544 336.575 23.3496C336.705 24.1146 336.771 25.0016 336.771 26.0107C336.771 26.971 336.705 27.8337 336.575 28.5986C336.412 29.4938 336.225 30.3076 336.014 31.04C335.851 31.5771 335.534 32.334 335.062 33.3105C334.834 33.8314 334.402 34.515 333.768 35.3613C333.442 35.7845 332.889 36.3623 332.107 37.0947C331.473 37.6807 330.83 38.1527 330.179 38.5107C329.381 38.9827 328.592 39.349 327.811 39.6094C326.997 39.8861 326.118 40.0977 325.174 40.2441C324.116 40.4069 323.115 40.4883 322.171 40.4883ZM322.171 35.1416C325.101 35.1416 327.249 34.279 328.616 32.5537C330.016 30.7796 330.716 28.5986 330.716 26.0107C330.716 23.3089 330 21.0872 328.567 19.3457C327.135 17.653 325.003 16.8066 322.171 16.8066C319.323 16.8066 317.19 17.6693 315.774 19.3945C314.31 21.1849 313.577 23.3903 313.577 26.0107C313.577 28.68 314.293 30.861 315.726 32.5537C317.093 34.279 319.241 35.1416 322.171 35.1416Z" fill="black"/>
</svg>
