<svg width="65" height="39" viewBox="0 0 65 39" fill="none" xmlns="http://www.w3.org/2000/svg">
<path d="M35.3057 37.2432L33.8408 38.708L29.6904 34.6064C28.2907 35.762 26.6143 36.7061 24.6611 37.4385C22.7243 38.1383 20.6003 38.4883 18.2891 38.4883C17.166 38.4883 15.9697 38.4069 14.7002 38.2441C13.5446 38.0977 12.4948 37.8535 11.5508 37.5117C10.8021 37.3001 9.88249 36.9095 8.79199 36.3398C7.94564 35.9004 7.18066 35.3877 6.49707 34.8018C5.78092 34.2646 5.12988 33.6299 4.54395 32.8975C4.00684 32.2627 3.51042 31.5303 3.05469 30.7002C2.58268 29.8864 2.18392 29.0726 1.8584 28.2588C1.50033 27.3636 1.23177 26.4766 1.05273 25.5977C0.808594 24.6374 0.637695 23.6689 0.540039 22.6924C0.442383 21.7321 0.393555 20.7474 0.393555 19.7383C0.393555 18.6315 0.458659 17.6549 0.588867 16.8086C0.702799 16.0111 0.90625 15.0589 1.19922 13.9521C1.44336 12.9919 1.76074 12.0885 2.15137 11.2422C2.39551 10.64 2.82682 9.82617 3.44531 8.80078C3.94987 8.01953 4.51953 7.28711 5.1543 6.60352C5.82161 5.82227 6.48893 5.1875 7.15625 4.69922C8.01888 4.01562 8.78385 3.50293 9.45117 3.16113C10.5091 2.60775 11.4124 2.20085 12.1611 1.94043C13.2516 1.59863 14.2282 1.37077 15.0908 1.25684C16.3766 1.0778 17.459 0.988281 18.3379 0.988281C19.3145 0.988281 20.4701 1.0778 21.8047 1.25684C22.8138 1.40332 23.8311 1.63118 24.8564 1.94043C25.8656 2.2985 26.7607 2.68099 27.542 3.08789C28.1117 3.38086 28.901 3.90169 29.9102 4.65039C30.5775 5.13867 31.2448 5.77344 31.9121 6.55469C32.498 7.22201 33.0433 7.95443 33.5479 8.75195C34.1175 9.74479 34.5326 10.5586 34.793 11.1934C35.0859 11.9421 35.3708 12.8454 35.6475 13.9033C35.859 14.7008 36.0462 15.653 36.209 16.7598C36.3066 17.7038 36.3555 18.6966 36.3555 19.7383C36.3066 22.2936 35.8509 24.7513 34.9883 27.1113C34.0768 29.4714 32.8154 31.4814 31.2041 33.1416L35.3057 37.2432ZM6.49707 19.7383C6.49707 20.5195 6.5459 21.2926 6.64355 22.0576C6.67611 22.4645 6.79818 23.1969 7.00977 24.2549C7.10742 24.7269 7.31901 25.4105 7.64453 26.3057C7.82357 26.7939 8.14095 27.4124 8.59668 28.1611C8.88965 28.682 9.30469 29.2109 9.8418 29.748C10.3138 30.2689 10.8509 30.7002 11.4531 31.042C12.1042 31.4977 12.7389 31.8314 13.3574 32.043C14.1875 32.3359 14.9525 32.5394 15.6523 32.6533C16.5475 32.8161 17.4264 32.8975 18.2891 32.8975C19.819 32.8975 21.2025 32.6777 22.4395 32.2383C23.7415 31.7826 24.832 31.2048 25.7109 30.5049L20.9014 25.6953L22.293 24.2549L27.1514 29.0889C28.1279 27.9658 28.9092 26.5498 29.4951 24.8408C29.9997 23.1807 30.252 21.4798 30.252 19.7383C30.252 18.8268 30.2031 17.9479 30.1055 17.1016C29.9427 16.125 29.7555 15.2949 29.5439 14.6113C29.3812 14.1068 29.0638 13.3662 28.5918 12.3896C28.3965 11.9827 27.9814 11.3398 27.3467 10.4609C26.777 9.79362 26.2318 9.25651 25.7109 8.84961C24.8809 8.29622 24.1973 7.89746 23.6602 7.65332C22.8464 7.34408 22.0244 7.0918 21.1943 6.89648C20.1852 6.73372 19.2331 6.65234 18.3379 6.65234C17.4102 6.65234 16.6126 6.71745 15.9453 6.84766C15.4245 6.94531 14.7083 7.16504 13.7969 7.50684C13.276 7.68587 12.6413 8.00326 11.8926 8.45898C11.4368 8.75195 10.8916 9.18327 10.2568 9.75293C9.65462 10.3551 9.21517 10.8841 8.93848 11.3398C8.4502 12.1048 8.10026 12.7233 7.88867 13.1953C7.56315 13.8301 7.30273 14.4974 7.10742 15.1973C6.86328 16.125 6.70866 16.8574 6.64355 17.3945C6.5459 18.1432 6.49707 18.9245 6.49707 19.7383ZM38.8457 32.5557C40.7337 31.2699 43.0042 29.6504 45.6572 27.6973C47.529 26.3138 49.181 25.0117 50.6133 23.791C53.7057 21.252 55.7891 19.1361 56.8633 17.4434C57.8887 15.8158 58.4014 14.1312 58.4014 12.3896C58.4014 10.4691 57.8154 8.92285 56.6436 7.75098C55.488 6.64421 53.8766 6.09082 51.8096 6.09082C49.8239 6.09082 48.1556 6.64421 46.8047 7.75098C45.4212 8.87402 44.404 10.4609 43.7529 12.5117L38.3086 10.1436C39.4154 7.37663 41.165 5.14681 43.5576 3.4541C45.8851 1.81022 48.652 0.988281 51.8584 0.988281C52.9001 0.988281 53.8685 1.06152 54.7637 1.20801C55.4635 1.32194 56.2936 1.53353 57.2539 1.84277C57.8073 2.02181 58.5234 2.33919 59.4023 2.79492C59.6953 2.95768 60.2812 3.389 61.1602 4.08887C61.681 4.52832 62.1449 5.04915 62.5518 5.65137C63.04 6.44889 63.3574 7.05111 63.5039 7.45801C63.7806 8.20671 63.984 8.87402 64.1143 9.45996C64.2445 10.0947 64.3096 10.8109 64.3096 11.6084C64.3096 14.2614 63.4714 16.6214 61.7949 18.6885C60.0534 20.7718 57.1725 23.0749 53.1523 25.5977C51.9967 26.3464 50.2145 27.4124 47.8057 28.7959C45.4782 30.098 43.2077 31.3024 40.9941 32.4092H64.5049V38H38.8457V32.5557Z" fill="black"/>
</svg>
